<svg width="61" height="76" viewBox="0 0 61 76" fill="none" xmlns="http://www.w3.org/2000/svg">
<rect x="6.5" y="6.5" width="54" height="69" rx="4.5" fill="#FBF5E5" stroke="#5A8CED"/>
<rect x="0.5" y="0.5" width="54" height="69" rx="4.5" fill="#FFDFB0" stroke="#5A8CED"/>
<rect x="18.5" y="13.5" width="39" height="19" rx="4.5" fill="#FFDFB0" stroke="#5A8CED"/>
<path d="M36.4435 27.342C36.4809 27.4167 36.4995 27.496 36.4995 27.58C36.4995 27.72 36.4435 27.8367 36.3315 27.93C36.2289 28.0233 36.1029 28.07 35.9535 28.07C35.7202 28.07 35.5569 27.958 35.4635 27.734L34.4695 25.466H29.1915L28.1835 27.734C28.0902 27.958 27.9269 28.07 27.6935 28.07C27.5442 28.07 27.4135 28.0233 27.3015 27.93C27.1895 27.8273 27.1335 27.706 27.1335 27.566C27.1335 27.4913 27.1522 27.4167 27.1895 27.342L31.1935 18.438C31.2495 18.3073 31.3335 18.2093 31.4455 18.144C31.5575 18.0787 31.6789 18.046 31.8095 18.046C31.9495 18.046 32.0755 18.0833 32.1875 18.158C32.2995 18.2233 32.3835 18.3167 32.4395 18.438L36.4435 27.342ZM29.6115 24.514H34.0495L31.8235 19.488L29.6115 24.514ZM44.4667 18.354C44.5134 18.2513 44.5787 18.172 44.6627 18.116C44.7561 18.06 44.8541 18.032 44.9567 18.032C45.1061 18.032 45.2367 18.0833 45.3487 18.186C45.4701 18.2793 45.5307 18.396 45.5307 18.536C45.5307 18.6107 45.5121 18.6853 45.4747 18.76L41.4567 27.692C41.4007 27.8133 41.3167 27.9067 41.2047 27.972C41.0927 28.0373 40.9714 28.07 40.8407 28.07C40.7101 28.07 40.5887 28.0373 40.4767 27.972C40.3647 27.9067 40.2807 27.8133 40.2247 27.692L36.2207 18.76C36.1927 18.6853 36.1787 18.6153 36.1787 18.55C36.1787 18.4007 36.2394 18.2793 36.3607 18.186C36.4821 18.0833 36.6174 18.032 36.7667 18.032C36.9907 18.032 37.1541 18.1393 37.2567 18.354L40.8687 26.516L44.4667 18.354ZM47.4824 28.07C47.3051 28.07 47.1651 28.0187 47.0624 27.916C46.9598 27.804 46.9084 27.6593 46.9084 27.482V18.648C46.9084 18.4707 46.9598 18.3307 47.0624 18.228C47.1651 18.116 47.3051 18.06 47.4824 18.06C47.6598 18.06 47.7998 18.116 47.9024 18.228C48.0051 18.3307 48.0564 18.4707 48.0564 18.648V27.482C48.0564 27.6593 48.0051 27.804 47.9024 27.916C47.7998 28.0187 47.6598 28.07 47.4824 28.07Z" fill="#5A8CED"/>
<rect x="37" y="55" width="15" height="12" rx="2" fill="#5A8CED"/>
<path d="M42.5981 58.3L47.0981 60.8981L42.5981 63.4961L42.5981 58.3Z" fill="#FFDFB0"/>
<rect x="37.6001" y="55.6" width="1.2" height="1.2" fill="#FFDFB0"/>
<rect x="49.6001" y="55.6" width="1.2" height="1.2" fill="#FFDFB0"/>
<rect x="47.2001" y="55.6" width="1.2" height="1.2" fill="#FFDFB0"/>
<rect x="44.7999" y="55.6" width="1.2" height="1.2" fill="#FFDFB0"/>
<rect x="42.3999" y="55.6" width="1.2" height="1.2" fill="#FFDFB0"/>
<rect x="40" y="55.6" width="1.2" height="1.2" fill="#FFDFB0"/>
<rect x="37.6001" y="65.2" width="1.2" height="1.2" fill="#FFDFB0"/>
<rect x="49.6001" y="65.2" width="1.2" height="1.2" fill="#FFDFB0"/>
<rect x="47.2001" y="65.2" width="1.2" height="1.2" fill="#FFDFB0"/>
<rect x="44.7999" y="65.2" width="1.2" height="1.2" fill="#FFDFB0"/>
<rect x="42.3999" y="65.2" width="1.2" height="1.2" fill="#FFDFB0"/>
<rect x="40" y="65.2" width="1.2" height="1.2" fill="#FFDFB0"/>
</svg>
