<svg width="61" height="76" viewBox="0 0 61 76" fill="none" xmlns="http://www.w3.org/2000/svg">
<rect x="6.5" y="6.5" width="54" height="69" rx="4.5" fill="#FBF5E5" stroke="#5A8CED"/>
<rect x="0.5" y="0.5" width="54" height="69" rx="4.5" fill="#FFDFB0" stroke="#5A8CED"/>
<rect x="18.5" y="13.5" width="39" height="19" rx="4.5" fill="#FFDFB0" stroke="#5A8CED"/>
<path d="M32.9293 18.06C33.1066 18.06 33.2419 18.116 33.3353 18.228C33.4379 18.3307 33.4893 18.4707 33.4893 18.648V27.51C33.4893 27.678 33.4426 27.8133 33.3493 27.916C33.2559 28.0187 33.1253 28.07 32.9573 28.07C32.7893 28.07 32.6633 28.0187 32.5793 27.916C32.4953 27.8133 32.4533 27.678 32.4533 27.51V20.356L29.4153 26.18C29.2846 26.4507 29.0933 26.586 28.8413 26.586C28.5986 26.586 28.4073 26.4507 28.2673 26.18L25.2153 20.426V27.51C25.2153 27.678 25.1686 27.8133 25.0753 27.916C24.9913 28.0187 24.8653 28.07 24.6973 28.07C24.5293 28.07 24.3986 28.0187 24.3053 27.916C24.2119 27.8133 24.1653 27.678 24.1653 27.51V18.648C24.1653 18.4707 24.2166 18.3307 24.3193 18.228C24.4219 18.116 24.5619 18.06 24.7393 18.06C24.9726 18.06 25.1593 18.1953 25.2993 18.466L28.8553 25.284L32.3693 18.466C32.4439 18.3167 32.5233 18.214 32.6073 18.158C32.7006 18.0927 32.8079 18.06 32.9293 18.06ZM43.0348 27.132C43.1654 27.2533 43.2308 27.3887 43.2308 27.538C43.2308 27.6687 43.1748 27.79 43.0628 27.902C42.9601 28.0047 42.8388 28.056 42.6988 28.056C42.5774 28.056 42.4514 28 42.3208 27.888L37.0848 23.31V27.482C37.0848 27.6593 37.0334 27.804 36.9308 27.916C36.8281 28.0187 36.6881 28.07 36.5108 28.07C36.3334 28.07 36.1934 28.0187 36.0908 27.916C35.9881 27.804 35.9368 27.6593 35.9368 27.482V18.648C35.9368 18.4707 35.9881 18.3307 36.0908 18.228C36.1934 18.116 36.3334 18.06 36.5108 18.06C36.6881 18.06 36.8281 18.116 36.9308 18.228C37.0334 18.3307 37.0848 18.4707 37.0848 18.648V22.666L42.0828 18.228C42.1854 18.1253 42.3068 18.074 42.4468 18.074C42.5868 18.074 42.7081 18.13 42.8108 18.242C42.9134 18.3447 42.9648 18.4613 42.9648 18.592C42.9648 18.732 42.9041 18.8627 42.7828 18.984L38.2608 22.96L43.0348 27.132ZM51.829 18.354C51.8757 18.2513 51.941 18.172 52.025 18.116C52.1184 18.06 52.2164 18.032 52.319 18.032C52.4684 18.032 52.599 18.0833 52.711 18.186C52.8324 18.2793 52.893 18.396 52.893 18.536C52.893 18.6107 52.8744 18.6853 52.837 18.76L48.819 27.692C48.763 27.8133 48.679 27.9067 48.567 27.972C48.455 28.0373 48.3337 28.07 48.203 28.07C48.0724 28.07 47.951 28.0373 47.839 27.972C47.727 27.9067 47.643 27.8133 47.587 27.692L43.583 18.76C43.555 18.6853 43.541 18.6153 43.541 18.55C43.541 18.4007 43.6017 18.2793 43.723 18.186C43.8444 18.0833 43.9797 18.032 44.129 18.032C44.353 18.032 44.5164 18.1393 44.619 18.354L48.231 26.516L51.829 18.354Z" fill="#5A8CED"/>
<rect x="37" y="55" width="15" height="12" rx="2" fill="#5A8CED"/>
<path d="M42.5981 58.3L47.0981 60.8981L42.5981 63.4961L42.5981 58.3Z" fill="#FFDFB0"/>
<rect x="37.6001" y="55.6" width="1.2" height="1.2" fill="#FFDFB0"/>
<rect x="49.6001" y="55.6" width="1.2" height="1.2" fill="#FFDFB0"/>
<rect x="47.2001" y="55.6" width="1.2" height="1.2" fill="#FFDFB0"/>
<rect x="44.7999" y="55.6" width="1.2" height="1.2" fill="#FFDFB0"/>
<rect x="42.3999" y="55.6" width="1.2" height="1.2" fill="#FFDFB0"/>
<rect x="40" y="55.6" width="1.2" height="1.2" fill="#FFDFB0"/>
<rect x="37.6001" y="65.2" width="1.2" height="1.2" fill="#FFDFB0"/>
<rect x="49.6001" y="65.2" width="1.2" height="1.2" fill="#FFDFB0"/>
<rect x="47.2001" y="65.2" width="1.2" height="1.2" fill="#FFDFB0"/>
<rect x="44.7999" y="65.2" width="1.2" height="1.2" fill="#FFDFB0"/>
<rect x="42.3999" y="65.2" width="1.2" height="1.2" fill="#FFDFB0"/>
<rect x="40" y="65.2" width="1.2" height="1.2" fill="#FFDFB0"/>
</svg>
