<svg width="61" height="76" viewBox="0 0 61 76" fill="none" xmlns="http://www.w3.org/2000/svg">
<rect x="6.5" y="6.5" width="54" height="69" rx="4.5" fill="#FBF5E5" stroke="#5A8CED"/>
<rect x="0.5" y="0.5" width="54" height="69" rx="4.5" fill="#FFDFB0" stroke="#5A8CED"/>
<rect x="18.5" y="13.5" width="39" height="19" rx="4.5" fill="#FFDFB0" stroke="#5A8CED"/>
<path d="M32.0201 18.06C32.1974 18.06 32.3328 18.116 32.4261 18.228C32.5288 18.3307 32.5801 18.4707 32.5801 18.648V27.51C32.5801 27.678 32.5334 27.8133 32.4401 27.916C32.3468 28.0187 32.2161 28.07 32.0481 28.07C31.8801 28.07 31.7541 28.0187 31.6701 27.916C31.5861 27.8133 31.5441 27.678 31.5441 27.51V20.356L28.5061 26.18C28.3754 26.4507 28.1841 26.586 27.9321 26.586C27.6894 26.586 27.4981 26.4507 27.3581 26.18L24.3061 20.426V27.51C24.3061 27.678 24.2594 27.8133 24.1661 27.916C24.0821 28.0187 23.9561 28.07 23.7881 28.07C23.6201 28.07 23.4894 28.0187 23.3961 27.916C23.3028 27.8133 23.2561 27.678 23.2561 27.51V18.648C23.2561 18.4707 23.3074 18.3307 23.4101 18.228C23.5128 18.116 23.6528 18.06 23.8301 18.06C24.0634 18.06 24.2501 18.1953 24.3901 18.466L27.9461 25.284L31.4601 18.466C31.5348 18.3167 31.6141 18.214 31.6981 18.158C31.7914 18.0927 31.8988 18.06 32.0201 18.06ZM39.1576 28.112C38.2429 28.112 37.4449 27.9067 36.7636 27.496C36.0916 27.0853 35.5736 26.502 35.2096 25.746C34.8456 24.99 34.6636 24.0987 34.6636 23.072C34.6636 22.036 34.8409 21.14 35.1956 20.384C35.5596 19.6187 36.0776 19.0353 36.7496 18.634C37.4309 18.2233 38.2336 18.018 39.1576 18.018C40.0816 18.018 40.8796 18.2233 41.5516 18.634C42.2329 19.0353 42.7509 19.6187 43.1056 20.384C43.4696 21.14 43.6516 22.0313 43.6516 23.058C43.6516 24.0847 43.4696 24.9807 43.1056 25.746C42.7416 26.502 42.2189 27.0853 41.5376 27.496C40.8656 27.9067 40.0722 28.112 39.1576 28.112ZM39.1576 27.132C40.2029 27.132 41.0149 26.782 41.5936 26.082C42.1816 25.3727 42.4756 24.3647 42.4756 23.058C42.4756 21.7513 42.1862 20.748 41.6076 20.048C41.0289 19.348 40.2122 18.998 39.1576 18.998C38.1122 18.998 37.2956 19.3527 36.7076 20.062C36.1289 20.762 35.8396 21.7607 35.8396 23.058C35.8396 24.3553 36.1289 25.3587 36.7076 26.068C37.2956 26.7773 38.1122 27.132 39.1576 27.132ZM52.7382 18.354C52.7849 18.2513 52.8502 18.172 52.9342 18.116C53.0276 18.06 53.1256 18.032 53.2282 18.032C53.3776 18.032 53.5082 18.0833 53.6202 18.186C53.7416 18.2793 53.8022 18.396 53.8022 18.536C53.8022 18.6107 53.7836 18.6853 53.7462 18.76L49.7282 27.692C49.6722 27.8133 49.5882 27.9067 49.4762 27.972C49.3642 28.0373 49.2429 28.07 49.1122 28.07C48.9816 28.07 48.8602 28.0373 48.7482 27.972C48.6362 27.9067 48.5522 27.8133 48.4962 27.692L44.4922 18.76C44.4642 18.6853 44.4502 18.6153 44.4502 18.55C44.4502 18.4007 44.5109 18.2793 44.6322 18.186C44.7536 18.0833 44.8889 18.032 45.0382 18.032C45.2622 18.032 45.4256 18.1393 45.5282 18.354L49.1402 26.516L52.7382 18.354Z" fill="#5A8CED"/>
<rect x="37" y="55" width="15" height="12" rx="2" fill="#5A8CED"/>
<path d="M42.5981 58.3L47.0981 60.8981L42.5981 63.4961L42.5981 58.3Z" fill="#FFDFB0"/>
<rect x="37.6001" y="55.6" width="1.2" height="1.2" fill="#FFDFB0"/>
<rect x="49.6001" y="55.6" width="1.2" height="1.2" fill="#FFDFB0"/>
<rect x="47.2001" y="55.6" width="1.2" height="1.2" fill="#FFDFB0"/>
<rect x="44.7999" y="55.6" width="1.2" height="1.2" fill="#FFDFB0"/>
<rect x="42.3999" y="55.6" width="1.2" height="1.2" fill="#FFDFB0"/>
<rect x="40" y="55.6" width="1.2" height="1.2" fill="#FFDFB0"/>
<rect x="37.6001" y="65.2" width="1.2" height="1.2" fill="#FFDFB0"/>
<rect x="49.6001" y="65.2" width="1.2" height="1.2" fill="#FFDFB0"/>
<rect x="47.2001" y="65.2" width="1.2" height="1.2" fill="#FFDFB0"/>
<rect x="44.7999" y="65.2" width="1.2" height="1.2" fill="#FFDFB0"/>
<rect x="42.3999" y="65.2" width="1.2" height="1.2" fill="#FFDFB0"/>
<rect x="40" y="65.2" width="1.2" height="1.2" fill="#FFDFB0"/>
</svg>
