<svg width="61" height="76" viewBox="0 0 61 76" fill="none" xmlns="http://www.w3.org/2000/svg">
<rect x="6.5" y="6.5" width="54" height="69" rx="4.5" fill="#FBF5E5" stroke="#5A8CED"/>
<rect x="0.5" y="0.5" width="54" height="69" rx="4.5" fill="#FFDFB0" stroke="#5A8CED"/>
<rect x="18.5" y="13.5" width="39" height="19" rx="4.5" fill="#FFDFB0" stroke="#5A8CED"/>
<path d="M33.3873 18.06C33.5646 18.06 33.6999 18.116 33.7933 18.228C33.8959 18.3307 33.9473 18.4707 33.9473 18.648V27.51C33.9473 27.678 33.9006 27.8133 33.8073 27.916C33.7139 28.0187 33.5833 28.07 33.4153 28.07C33.2473 28.07 33.1213 28.0187 33.0373 27.916C32.9533 27.8133 32.9113 27.678 32.9113 27.51V20.356L29.8733 26.18C29.7426 26.4507 29.5513 26.586 29.2993 26.586C29.0566 26.586 28.8653 26.4507 28.7253 26.18L25.6733 20.426V27.51C25.6733 27.678 25.6266 27.8133 25.5333 27.916C25.4493 28.0187 25.3233 28.07 25.1553 28.07C24.9873 28.07 24.8566 28.0187 24.7633 27.916C24.6699 27.8133 24.6233 27.678 24.6233 27.51V18.648C24.6233 18.4707 24.6746 18.3307 24.7773 18.228C24.8799 18.116 25.0199 18.06 25.1973 18.06C25.4306 18.06 25.6173 18.1953 25.7573 18.466L29.3133 25.284L32.8273 18.466C32.9019 18.3167 32.9813 18.214 33.0653 18.158C33.1586 18.0927 33.2659 18.06 33.3873 18.06ZM36.9688 28.07C36.7914 28.07 36.6514 28.0187 36.5488 27.916C36.4461 27.804 36.3948 27.6593 36.3948 27.482V18.69C36.3948 18.522 36.4461 18.3867 36.5488 18.284C36.6608 18.1813 36.8054 18.13 36.9828 18.13H40.3008C41.3368 18.13 42.1394 18.382 42.7088 18.886C43.2874 19.39 43.5768 20.104 43.5768 21.028C43.5768 21.952 43.2874 22.6707 42.7088 23.184C42.1301 23.6973 41.3274 23.954 40.3008 23.954H37.5428V27.482C37.5428 27.6593 37.4914 27.804 37.3888 27.916C37.2861 28.0187 37.1461 28.07 36.9688 28.07ZM40.1888 23.002C41.6914 23.002 42.4428 22.344 42.4428 21.028C42.4428 19.7307 41.6914 19.082 40.1888 19.082H37.5428V23.002H40.1888ZM51.6622 24.906C51.8302 24.906 51.9609 24.9527 52.0542 25.046C52.1475 25.13 52.1942 25.242 52.1942 25.382C52.1942 25.6993 52.0169 25.858 51.6622 25.858H50.6122V27.482C50.6122 27.6687 50.5562 27.8133 50.4442 27.916C50.3415 28.0187 50.2062 28.07 50.0382 28.07C49.8702 28.07 49.7349 28.0187 49.6322 27.916C49.5295 27.8133 49.4782 27.6687 49.4782 27.482V25.858H45.3342C45.1662 25.858 45.0355 25.8113 44.9422 25.718C44.8489 25.6247 44.8022 25.508 44.8022 25.368C44.8022 25.2373 44.8535 25.0927 44.9562 24.934L49.5342 18.312C49.6649 18.144 49.8329 18.06 50.0382 18.06C50.1969 18.06 50.3322 18.1113 50.4442 18.214C50.5562 18.3167 50.6122 18.4613 50.6122 18.648V24.906H51.6622ZM46.1042 24.906H49.4782V20.048L46.1042 24.906Z" fill="#5A8CED"/>
<rect x="37" y="55" width="15" height="12" rx="2" fill="#5A8CED"/>
<path d="M42.5981 58.3L47.0981 60.8981L42.5981 63.4961L42.5981 58.3Z" fill="#FFDFB0"/>
<rect x="37.6001" y="55.6" width="1.2" height="1.2" fill="#FFDFB0"/>
<rect x="49.6001" y="55.6" width="1.2" height="1.2" fill="#FFDFB0"/>
<rect x="47.2001" y="55.6" width="1.2" height="1.2" fill="#FFDFB0"/>
<rect x="44.7999" y="55.6" width="1.2" height="1.2" fill="#FFDFB0"/>
<rect x="42.3999" y="55.6" width="1.2" height="1.2" fill="#FFDFB0"/>
<rect x="40" y="55.6" width="1.2" height="1.2" fill="#FFDFB0"/>
<rect x="37.6001" y="65.2" width="1.2" height="1.2" fill="#FFDFB0"/>
<rect x="49.6001" y="65.2" width="1.2" height="1.2" fill="#FFDFB0"/>
<rect x="47.2001" y="65.2" width="1.2" height="1.2" fill="#FFDFB0"/>
<rect x="44.7999" y="65.2" width="1.2" height="1.2" fill="#FFDFB0"/>
<rect x="42.3999" y="65.2" width="1.2" height="1.2" fill="#FFDFB0"/>
<rect x="40" y="65.2" width="1.2" height="1.2" fill="#FFDFB0"/>
</svg>
