<svg width="61" height="76" viewBox="0 0 61 76" fill="none" xmlns="http://www.w3.org/2000/svg">
<rect x="6.5" y="6.5" width="54" height="69" rx="4.5" fill="#FBF5E5" stroke="#5A8CED"/>
<rect x="0.5" y="0.5" width="54" height="69" rx="4.5" fill="#FFDFB0" stroke="#5A8CED"/>
<rect x="18.5" y="13.5" width="39" height="19" rx="4.5" fill="#FFDFB0" stroke="#5A8CED"/>
<path d="M33.4023 18.41C33.4396 18.2887 33.505 18.2 33.5983 18.144C33.6916 18.0787 33.7943 18.046 33.9063 18.046C34.0556 18.046 34.1816 18.0927 34.2843 18.186C34.3963 18.27 34.4523 18.3867 34.4523 18.536C34.4523 18.6013 34.4383 18.676 34.4103 18.76L31.2463 27.678C31.1996 27.8087 31.1203 27.9113 31.0083 27.986C30.8963 28.0513 30.7703 28.084 30.6303 28.084C30.4996 28.084 30.3783 28.0513 30.2663 27.986C30.1543 27.9113 30.075 27.8087 30.0283 27.678L27.2843 19.922L24.5123 27.678C24.4656 27.8087 24.3863 27.9113 24.2743 27.986C24.1623 28.0513 24.041 28.084 23.9103 28.084C23.7796 28.084 23.6583 28.0513 23.5463 27.986C23.4343 27.9113 23.355 27.8087 23.3083 27.678L20.1303 18.76C20.1023 18.6853 20.0883 18.6153 20.0883 18.55C20.0883 18.4007 20.1443 18.2793 20.2563 18.186C20.3776 18.0927 20.513 18.046 20.6623 18.046C20.7743 18.046 20.877 18.0787 20.9703 18.144C21.073 18.2 21.143 18.2887 21.1803 18.41L23.9383 26.362L26.7383 18.494C26.785 18.354 26.8596 18.2513 26.9623 18.186C27.065 18.1113 27.177 18.074 27.2983 18.074C27.4196 18.074 27.5316 18.1113 27.6343 18.186C27.737 18.2607 27.8116 18.368 27.8583 18.508L30.6163 26.39L33.4023 18.41ZM44.9605 18.06C45.1378 18.06 45.2732 18.116 45.3665 18.228C45.4692 18.3307 45.5205 18.4707 45.5205 18.648V27.51C45.5205 27.678 45.4738 27.8133 45.3805 27.916C45.2872 28.0187 45.1565 28.07 44.9885 28.07C44.8205 28.07 44.6945 28.0187 44.6105 27.916C44.5265 27.8133 44.4845 27.678 44.4845 27.51V20.356L41.4465 26.18C41.3158 26.4507 41.1245 26.586 40.8725 26.586C40.6298 26.586 40.4385 26.4507 40.2985 26.18L37.2465 20.426V27.51C37.2465 27.678 37.1998 27.8133 37.1065 27.916C37.0225 28.0187 36.8965 28.07 36.7285 28.07C36.5605 28.07 36.4298 28.0187 36.3365 27.916C36.2432 27.8133 36.1965 27.678 36.1965 27.51V18.648C36.1965 18.4707 36.2478 18.3307 36.3505 18.228C36.4532 18.116 36.5932 18.06 36.7705 18.06C37.0038 18.06 37.1905 18.1953 37.3305 18.466L40.8865 25.284L44.4005 18.466C44.4752 18.3167 44.5545 18.214 44.6385 18.158C44.7318 18.0927 44.8392 18.06 44.9605 18.06ZM55.206 18.354C55.2527 18.2513 55.318 18.172 55.402 18.116C55.4953 18.06 55.5933 18.032 55.696 18.032C55.8453 18.032 55.976 18.0833 56.088 18.186C56.2093 18.2793 56.27 18.396 56.27 18.536C56.27 18.6107 56.2513 18.6853 56.214 18.76L52.196 27.692C52.14 27.8133 52.056 27.9067 51.944 27.972C51.832 28.0373 51.7107 28.07 51.58 28.07C51.4493 28.07 51.328 28.0373 51.216 27.972C51.104 27.9067 51.02 27.8133 50.964 27.692L46.96 18.76C46.932 18.6853 46.918 18.6153 46.918 18.55C46.918 18.4007 46.9787 18.2793 47.1 18.186C47.2213 18.0833 47.3567 18.032 47.506 18.032C47.73 18.032 47.8933 18.1393 47.996 18.354L51.608 26.516L55.206 18.354Z" fill="#5A8CED"/>
<rect x="37" y="55" width="15" height="12" rx="2" fill="#5A8CED"/>
<path d="M42.5981 58.3L47.0981 60.8981L42.5981 63.4961L42.5981 58.3Z" fill="#FFDFB0"/>
<rect x="37.6001" y="55.6" width="1.2" height="1.2" fill="#FFDFB0"/>
<rect x="49.6001" y="55.6" width="1.2" height="1.2" fill="#FFDFB0"/>
<rect x="47.2001" y="55.6" width="1.2" height="1.2" fill="#FFDFB0"/>
<rect x="44.7999" y="55.6" width="1.2" height="1.2" fill="#FFDFB0"/>
<rect x="42.3999" y="55.6" width="1.2" height="1.2" fill="#FFDFB0"/>
<rect x="40" y="55.6" width="1.2" height="1.2" fill="#FFDFB0"/>
<rect x="37.6001" y="65.2" width="1.2" height="1.2" fill="#FFDFB0"/>
<rect x="49.6001" y="65.2" width="1.2" height="1.2" fill="#FFDFB0"/>
<rect x="47.2001" y="65.2" width="1.2" height="1.2" fill="#FFDFB0"/>
<rect x="44.7999" y="65.2" width="1.2" height="1.2" fill="#FFDFB0"/>
<rect x="42.3999" y="65.2" width="1.2" height="1.2" fill="#FFDFB0"/>
<rect x="40" y="65.2" width="1.2" height="1.2" fill="#FFDFB0"/>
</svg>
