<svg width="61" height="76" viewBox="0 0 61 76" fill="none" xmlns="http://www.w3.org/2000/svg">
<rect x="6.5" y="6.5" width="54" height="69" rx="4.5" fill="#FBF5E5" stroke="#5A8CED"/>
<rect x="0.5" y="0.5" width="54" height="69" rx="4.5" fill="#FBF5E5" stroke="#5A8CED"/>
<path d="M27 13.5C20.0875 13.5 14.5 19.0875 14.5 26C14.5 32.9125 20.0875 38.5 27 38.5C33.9125 38.5 39.5 32.9125 39.5 26C39.5 19.0875 33.9125 13.5 27 13.5ZM27 36C21.4875 36 17 31.5125 17 26C17 20.4875 21.4875 16 27 16C32.5125 16 37 20.4875 37 26C37 31.5125 32.5125 36 27 36ZM31.4875 19.75L27 24.2375L22.5125 19.75L20.75 21.5125L25.2375 26L20.75 30.4875L22.5125 32.25L27 27.7625L31.4875 32.25L33.25 30.4875L28.7625 26L33.25 21.5125L31.4875 19.75Z" fill="#5A8CED"/>
<path d="M14.1086 56.096C13.3086 56.096 12.6166 55.924 12.0326 55.58C11.4486 55.228 10.9966 54.728 10.6766 54.08C10.3646 53.424 10.2086 52.652 10.2086 51.764C10.2086 50.884 10.3646 50.12 10.6766 49.472C10.9966 48.816 11.4486 48.316 12.0326 47.972C12.6166 47.62 13.3086 47.444 14.1086 47.444C14.6446 47.444 15.1486 47.532 15.6206 47.708C16.1006 47.876 16.5166 48.12 16.8686 48.44C16.9966 48.56 17.0606 48.7 17.0606 48.86C17.0606 48.972 17.0286 49.072 16.9646 49.16C16.9006 49.24 16.8246 49.28 16.7366 49.28C16.6406 49.28 16.5246 49.236 16.3886 49.148C15.9806 48.828 15.6086 48.604 15.2726 48.476C14.9446 48.348 14.5646 48.284 14.1326 48.284C13.2046 48.284 12.4886 48.588 11.9846 49.196C11.4886 49.796 11.2406 50.652 11.2406 51.764C11.2406 52.884 11.4886 53.748 11.9846 54.356C12.4886 54.956 13.2046 55.256 14.1326 55.256C14.5566 55.256 14.9366 55.192 15.2726 55.064C15.6086 54.936 15.9806 54.712 16.3886 54.392C16.5246 54.304 16.6406 54.26 16.7366 54.26C16.8246 54.26 16.9006 54.3 16.9646 54.38C17.0286 54.46 17.0606 54.56 17.0606 54.68C17.0606 54.84 16.9966 54.98 16.8686 55.1C16.5166 55.42 16.1006 55.668 15.6206 55.844C15.1486 56.012 14.6446 56.096 14.1086 56.096ZM20.7685 50.012C22.2325 50.012 22.9645 50.78 22.9645 52.316V55.58C22.9645 55.724 22.9205 55.84 22.8325 55.928C22.7525 56.016 22.6405 56.06 22.4965 56.06C22.3525 56.06 22.2365 56.016 22.1485 55.928C22.0605 55.84 22.0165 55.724 22.0165 55.58V55.004C21.8645 55.348 21.6325 55.616 21.3205 55.808C21.0085 55.992 20.6485 56.084 20.2405 56.084C19.8645 56.084 19.5165 56.008 19.1965 55.856C18.8845 55.704 18.6365 55.492 18.4525 55.22C18.2685 54.948 18.1765 54.648 18.1765 54.32C18.1765 53.88 18.2885 53.54 18.5125 53.3C18.7365 53.052 19.1045 52.876 19.6165 52.772C20.1285 52.66 20.8405 52.604 21.7525 52.604H22.0165V52.208C22.0165 51.728 21.9165 51.376 21.7165 51.152C21.5245 50.928 21.2085 50.816 20.7685 50.816C20.2245 50.816 19.6725 50.964 19.1125 51.26C18.8965 51.396 18.7445 51.464 18.6565 51.464C18.5605 51.464 18.4805 51.428 18.4165 51.356C18.3525 51.284 18.3205 51.192 18.3205 51.08C18.3205 50.968 18.3525 50.872 18.4165 50.792C18.4885 50.704 18.6005 50.616 18.7525 50.528C19.0325 50.368 19.3485 50.244 19.7005 50.156C20.0605 50.06 20.4165 50.012 20.7685 50.012ZM20.3725 55.316C20.8525 55.316 21.2445 55.156 21.5485 54.836C21.8605 54.508 22.0165 54.088 22.0165 53.576V53.228H21.8005C21.0965 53.228 20.5605 53.26 20.1925 53.324C19.8245 53.38 19.5605 53.48 19.4005 53.624C19.2485 53.76 19.1725 53.964 19.1725 54.236C19.1725 54.548 19.2845 54.808 19.5085 55.016C19.7405 55.216 20.0285 55.316 20.3725 55.316ZM27.6838 50.012C29.0838 50.012 29.7838 50.784 29.7838 52.328V55.58C29.7838 55.732 29.7398 55.852 29.6518 55.94C29.5718 56.02 29.4558 56.06 29.3038 56.06C29.1518 56.06 29.0318 56.02 28.9438 55.94C28.8558 55.852 28.8118 55.732 28.8118 55.58V52.388C28.8118 51.844 28.7038 51.448 28.4878 51.2C28.2798 50.952 27.9438 50.828 27.4798 50.828C26.9438 50.828 26.5158 50.992 26.1958 51.32C25.8758 51.648 25.7158 52.092 25.7158 52.652V55.58C25.7158 55.732 25.6718 55.852 25.5838 55.94C25.5038 56.02 25.3878 56.06 25.2358 56.06C25.0838 56.06 24.9638 56.02 24.8758 55.94C24.7878 55.852 24.7438 55.732 24.7438 55.58V50.516C24.7438 50.372 24.7878 50.256 24.8758 50.168C24.9638 50.08 25.0838 50.036 25.2358 50.036C25.3798 50.036 25.4918 50.08 25.5718 50.168C25.6598 50.256 25.7038 50.368 25.7038 50.504V51.116C25.8958 50.756 26.1638 50.484 26.5078 50.3C26.8518 50.108 27.2438 50.012 27.6838 50.012ZM33.9761 56.084C33.4321 56.084 32.9481 55.96 32.5241 55.712C32.1081 55.464 31.7841 55.112 31.5521 54.656C31.3281 54.2 31.2161 53.672 31.2161 53.072C31.2161 52.472 31.3321 51.94 31.5641 51.476C31.8041 51.012 32.1361 50.652 32.5601 50.396C32.9841 50.14 33.4721 50.012 34.0241 50.012C34.3281 50.012 34.6281 50.056 34.9241 50.144C35.2281 50.224 35.4921 50.344 35.7161 50.504C35.8601 50.6 35.9601 50.696 36.0161 50.792C36.0801 50.88 36.1121 50.98 36.1121 51.092C36.1121 51.204 36.0801 51.296 36.0161 51.368C35.9601 51.44 35.8841 51.476 35.7881 51.476C35.7321 51.476 35.6721 51.46 35.6081 51.428C35.5441 51.396 35.4881 51.364 35.4401 51.332C35.4001 51.3 35.3721 51.28 35.3561 51.272C35.1481 51.136 34.9481 51.028 34.7561 50.948C34.5721 50.868 34.3441 50.828 34.0721 50.828C33.4881 50.828 33.0321 51.028 32.7041 51.428C32.3841 51.82 32.2241 52.368 32.2241 53.072C32.2241 53.776 32.3841 54.32 32.7041 54.704C33.0321 55.088 33.4881 55.28 34.0721 55.28C34.3441 55.28 34.5761 55.24 34.7681 55.16C34.9681 55.08 35.1681 54.972 35.3681 54.836C35.4561 54.78 35.5401 54.732 35.6201 54.692C35.7001 54.652 35.7681 54.632 35.8241 54.632C35.9121 54.632 35.9841 54.668 36.0401 54.74C36.1041 54.812 36.1361 54.904 36.1361 55.016C36.1361 55.12 36.1081 55.216 36.0521 55.304C35.9961 55.384 35.8921 55.476 35.7401 55.58C35.5161 55.732 35.2441 55.856 34.9241 55.952C34.6121 56.04 34.2961 56.084 33.9761 56.084ZM41.8303 54.644C41.9183 54.644 41.9943 54.68 42.0583 54.752C42.1223 54.824 42.1543 54.916 42.1543 55.028C42.1543 55.228 42.0143 55.412 41.7343 55.58C41.4463 55.748 41.1423 55.876 40.8223 55.964C40.5023 56.044 40.1903 56.084 39.8863 56.084C38.9823 56.084 38.2663 55.816 37.7383 55.28C37.2183 54.744 36.9583 54.004 36.9583 53.06C36.9583 52.46 37.0743 51.932 37.3063 51.476C37.5383 51.012 37.8623 50.652 38.2783 50.396C38.7023 50.14 39.1823 50.012 39.7183 50.012C40.4783 50.012 41.0823 50.26 41.5303 50.756C41.9783 51.252 42.2023 51.924 42.2023 52.772C42.2023 52.932 42.1703 53.048 42.1063 53.12C42.0423 53.192 41.9383 53.228 41.7943 53.228H37.9303C38.0023 54.604 38.6543 55.292 39.8863 55.292C40.1983 55.292 40.4663 55.252 40.6903 55.172C40.9143 55.084 41.1543 54.968 41.4103 54.824C41.6183 54.704 41.7583 54.644 41.8303 54.644ZM39.7303 50.768C39.2183 50.768 38.8063 50.928 38.4943 51.248C38.1903 51.568 38.0103 52.02 37.9543 52.604H41.3503C41.3343 52.012 41.1863 51.56 40.9063 51.248C40.6263 50.928 40.2343 50.768 39.7303 50.768ZM44.1264 56.06C43.9824 56.06 43.8624 56.02 43.7664 55.94C43.6784 55.852 43.6344 55.732 43.6344 55.58V47.96C43.6344 47.808 43.6784 47.692 43.7664 47.612C43.8624 47.524 43.9824 47.48 44.1264 47.48C44.2624 47.48 44.3744 47.524 44.4624 47.612C44.5584 47.692 44.6064 47.808 44.6064 47.96V55.58C44.6064 55.732 44.5584 55.852 44.4624 55.94C44.3744 56.02 44.2624 56.06 44.1264 56.06Z" fill="#5A8CED"/>
</svg>
