<svg width="61" height="76" viewBox="0 0 61 76" fill="none" xmlns="http://www.w3.org/2000/svg">
<rect x="6.5" y="6.5" width="54" height="69" rx="4.5" fill="#FBF5E5" stroke="#5A8CED"/>
<rect x="0.5" y="0.5" width="54" height="69" rx="4.5" fill="#FFDFB0" stroke="#5A8CED"/>
<rect x="18.5" y="13.5" width="39" height="19" rx="4.5" fill="#FFDFB0" stroke="#5A8CED"/>
<path d="M32.9777 27.342C33.0151 27.4167 33.0337 27.496 33.0337 27.58C33.0337 27.72 32.9777 27.8367 32.8657 27.93C32.7631 28.0233 32.6371 28.07 32.4877 28.07C32.2544 28.07 32.0911 27.958 31.9977 27.734L31.0037 25.466H25.7257L24.7177 27.734C24.6244 27.958 24.4611 28.07 24.2277 28.07C24.0784 28.07 23.9477 28.0233 23.8357 27.93C23.7237 27.8273 23.6677 27.706 23.6677 27.566C23.6677 27.4913 23.6864 27.4167 23.7237 27.342L27.7277 18.438C27.7837 18.3073 27.8677 18.2093 27.9797 18.144C28.0917 18.0787 28.2131 18.046 28.3437 18.046C28.4837 18.046 28.6097 18.0833 28.7217 18.158C28.8337 18.2233 28.9177 18.3167 28.9737 18.438L32.9777 27.342ZM26.1457 24.514H30.5837L28.3577 19.488L26.1457 24.514ZM43.1496 27.342C43.1869 27.4167 43.2056 27.496 43.2056 27.58C43.2056 27.72 43.1496 27.8367 43.0376 27.93C42.9349 28.0233 42.8089 28.07 42.6596 28.07C42.4263 28.07 42.2629 27.958 42.1696 27.734L41.1756 25.466H35.8976L34.8896 27.734C34.7963 27.958 34.6329 28.07 34.3996 28.07C34.2503 28.07 34.1196 28.0233 34.0076 27.93C33.8956 27.8273 33.8396 27.706 33.8396 27.566C33.8396 27.4913 33.8583 27.4167 33.8956 27.342L37.8996 18.438C37.9556 18.3073 38.0396 18.2093 38.1516 18.144C38.2636 18.0787 38.3849 18.046 38.5156 18.046C38.6556 18.046 38.7816 18.0833 38.8936 18.158C39.0056 18.2233 39.0896 18.3167 39.1456 18.438L43.1496 27.342ZM36.3176 24.514H40.7556L38.5296 19.488L36.3176 24.514ZM48.6677 28.112C47.7343 28.112 46.927 27.9113 46.2457 27.51C45.5643 27.0993 45.037 26.516 44.6637 25.76C44.2997 24.9947 44.1177 24.094 44.1177 23.058C44.1177 22.0313 44.2997 21.14 44.6637 20.384C45.037 19.6187 45.5643 19.0353 46.2457 18.634C46.927 18.2233 47.7343 18.018 48.6677 18.018C49.293 18.018 49.881 18.1207 50.4317 18.326C50.9917 18.522 51.477 18.8067 51.8877 19.18C52.037 19.32 52.1117 19.4833 52.1117 19.67C52.1117 19.8007 52.0743 19.9173 51.9997 20.02C51.925 20.1133 51.8363 20.16 51.7337 20.16C51.6217 20.16 51.4863 20.1087 51.3277 20.006C50.8517 19.6327 50.4177 19.3713 50.0257 19.222C49.643 19.0727 49.1997 18.998 48.6957 18.998C47.613 18.998 46.7777 19.3527 46.1897 20.062C45.611 20.762 45.3217 21.7607 45.3217 23.058C45.3217 24.3647 45.611 25.3727 46.1897 26.082C46.7777 26.782 47.613 27.132 48.6957 27.132C49.1903 27.132 49.6337 27.0573 50.0257 26.908C50.4177 26.7587 50.8517 26.4973 51.3277 26.124C51.4863 26.0213 51.6217 25.97 51.7337 25.97C51.8363 25.97 51.925 26.0167 51.9997 26.11C52.0743 26.2033 52.1117 26.32 52.1117 26.46C52.1117 26.6467 52.037 26.81 51.8877 26.95C51.477 27.3233 50.9917 27.6127 50.4317 27.818C49.881 28.014 49.293 28.112 48.6677 28.112Z" fill="#5A8CED"/>
<rect x="37" y="55" width="15" height="12" rx="2" fill="#5A8CED"/>
<line x1="42.5" y1="63" x2="42.5" y2="58" stroke="#FBF5E5"/>
<line x1="47.5" y1="63" x2="47.5" y2="58" stroke="#FBF5E5"/>
<circle cx="41.5293" cy="62.5293" r="1.5" transform="rotate(-1.12959 41.5293 62.5293)" fill="#FBF5E5"/>
<circle cx="46.5293" cy="62.5293" r="1.5" transform="rotate(-1.12959 46.5293 62.5293)" fill="#FBF5E5"/>
<rect x="42" y="58" width="6" height="2" fill="#FBF5E5"/>
</svg>
