<svg width="61" height="76" viewBox="0 0 61 76" fill="none" xmlns="http://www.w3.org/2000/svg">
<rect x="6.5" y="6.5" width="54" height="69" rx="4.5" fill="#FBF5E5" stroke="#5A8CED"/>
<rect x="0.5" y="0.5" width="54" height="69" rx="4.5" fill="#FFDFB0" stroke="#5A8CED"/>
<rect x="18.5" y="13.5" width="39" height="19" rx="4.5" fill="#FFDFB0" stroke="#5A8CED"/>
<path d="M34.4569 26.436C34.4889 26.5 34.5049 26.568 34.5049 26.64C34.5049 26.76 34.4569 26.86 34.3609 26.94C34.2729 27.02 34.1649 27.06 34.0369 27.06C33.8369 27.06 33.6969 26.964 33.6169 26.772L32.7649 24.828H28.2409L27.3769 26.772C27.2969 26.964 27.1569 27.06 26.9569 27.06C26.8289 27.06 26.7169 27.02 26.6209 26.94C26.5249 26.852 26.4769 26.748 26.4769 26.628C26.4769 26.564 26.4929 26.5 26.5249 26.436L29.9569 18.804C30.0049 18.692 30.0769 18.608 30.1729 18.552C30.2689 18.496 30.3729 18.468 30.4849 18.468C30.6049 18.468 30.7129 18.5 30.8089 18.564C30.9049 18.62 30.9769 18.7 31.0249 18.804L34.4569 26.436ZM28.6009 24.012H32.4049L30.4969 19.704L28.6009 24.012ZM39.1867 27.096C38.3867 27.096 37.6947 26.924 37.1107 26.58C36.5267 26.228 36.0747 25.728 35.7547 25.08C35.4427 24.424 35.2867 23.652 35.2867 22.764C35.2867 21.884 35.4427 21.12 35.7547 20.472C36.0747 19.816 36.5267 19.316 37.1107 18.972C37.6947 18.62 38.3867 18.444 39.1867 18.444C39.7227 18.444 40.2267 18.532 40.6987 18.708C41.1787 18.876 41.5947 19.12 41.9467 19.44C42.0747 19.56 42.1387 19.7 42.1387 19.86C42.1387 19.972 42.1067 20.072 42.0427 20.16C41.9787 20.24 41.9027 20.28 41.8147 20.28C41.7187 20.28 41.6027 20.236 41.4667 20.148C41.0587 19.828 40.6867 19.604 40.3507 19.476C40.0227 19.348 39.6427 19.284 39.2107 19.284C38.2827 19.284 37.5667 19.588 37.0627 20.196C36.5667 20.796 36.3187 21.652 36.3187 22.764C36.3187 23.884 36.5667 24.748 37.0627 25.356C37.5667 25.956 38.2827 26.256 39.2107 26.256C39.6347 26.256 40.0147 26.192 40.3507 26.064C40.6867 25.936 41.0587 25.712 41.4667 25.392C41.6027 25.304 41.7187 25.26 41.8147 25.26C41.9027 25.26 41.9787 25.3 42.0427 25.38C42.1067 25.46 42.1387 25.56 42.1387 25.68C42.1387 25.84 42.0747 25.98 41.9467 26.1C41.5947 26.42 41.1787 26.668 40.6987 26.844C40.2267 27.012 39.7227 27.096 39.1867 27.096ZM47.4038 22.656C47.9158 22.8 48.3038 23.048 48.5678 23.4C48.8398 23.752 48.9758 24.188 48.9758 24.708C48.9758 25.444 48.7278 26.024 48.2318 26.448C47.7358 26.872 47.0598 27.084 46.2038 27.084C45.6838 27.084 45.1838 26.996 44.7038 26.82C44.2318 26.644 43.8318 26.404 43.5038 26.1C43.3758 25.98 43.3118 25.844 43.3118 25.692C43.3118 25.572 43.3438 25.472 43.4078 25.392C43.4718 25.312 43.5478 25.272 43.6358 25.272C43.7478 25.272 43.8598 25.316 43.9718 25.404C44.3398 25.7 44.6998 25.916 45.0518 26.052C45.4038 26.188 45.7838 26.256 46.1918 26.256C46.7838 26.256 47.2318 26.12 47.5358 25.848C47.8478 25.576 48.0038 25.184 48.0038 24.672C48.0038 23.64 47.3558 23.124 46.0598 23.124H45.4238C45.2958 23.124 45.1918 23.084 45.1118 23.004C45.0398 22.916 45.0038 22.816 45.0038 22.704C45.0038 22.592 45.0398 22.496 45.1118 22.416C45.1918 22.336 45.2958 22.296 45.4238 22.296H45.8678C46.4918 22.296 46.9718 22.16 47.3078 21.888C47.6438 21.608 47.8118 21.208 47.8118 20.688C47.8118 20.232 47.6758 19.884 47.4038 19.644C47.1318 19.396 46.7478 19.272 46.2518 19.272C45.8758 19.272 45.5118 19.344 45.1598 19.488C44.8078 19.624 44.4558 19.836 44.1038 20.124C43.9918 20.212 43.8798 20.256 43.7678 20.256C43.6798 20.256 43.6038 20.216 43.5398 20.136C43.4758 20.056 43.4438 19.956 43.4438 19.836C43.4438 19.684 43.5078 19.548 43.6358 19.428C43.9638 19.124 44.3598 18.884 44.8238 18.708C45.2958 18.532 45.7798 18.444 46.2758 18.444C47.0438 18.444 47.6558 18.64 48.1118 19.032C48.5678 19.424 48.7918 19.952 48.7838 20.616C48.7758 21.096 48.6478 21.516 48.3998 21.876C48.1598 22.236 47.8278 22.496 47.4038 22.656Z" fill="#5A8CED"/>
<rect x="37" y="55" width="15" height="12" rx="2" fill="#5A8CED"/>
<line x1="42.5" y1="63" x2="42.5" y2="58" stroke="#FBF5E5"/>
<line x1="47.5" y1="63" x2="47.5" y2="58" stroke="#FBF5E5"/>
<circle cx="41.5293" cy="62.5293" r="1.5" transform="rotate(-1.12959 41.5293 62.5293)" fill="#FBF5E5"/>
<circle cx="46.5293" cy="62.5293" r="1.5" transform="rotate(-1.12959 46.5293 62.5293)" fill="#FBF5E5"/>
<rect x="42" y="58" width="6" height="2" fill="#FBF5E5"/>
</svg>
