<svg width="61" height="76" viewBox="0 0 61 76" fill="none" xmlns="http://www.w3.org/2000/svg">
<rect x="6.5" y="6.5" width="54" height="69" rx="4.5" fill="#FBF5E5" stroke="#5A8CED"/>
<rect x="0.5" y="0.5" width="54" height="69" rx="4.5" fill="#FFDFB0" stroke="#5A8CED"/>
<rect x="18.5" y="13.5" width="39" height="19" rx="4.5" fill="#FFDFB0" stroke="#5A8CED"/>
<path d="M22.5654 28.07C22.3881 28.07 22.2481 28.0187 22.1454 27.916C22.0428 27.804 21.9914 27.6593 21.9914 27.482V18.69C21.9914 18.522 22.0428 18.3867 22.1454 18.284C22.2574 18.1813 22.4021 18.13 22.5794 18.13H27.6754C27.8434 18.13 27.9741 18.172 28.0674 18.256C28.1608 18.34 28.2074 18.4613 28.2074 18.62C28.2074 18.7693 28.1608 18.886 28.0674 18.97C27.9741 19.054 27.8434 19.096 27.6754 19.096H23.1254V22.498H27.3954C27.5634 22.498 27.6941 22.54 27.7874 22.624C27.8808 22.708 27.9274 22.8293 27.9274 22.988C27.9274 23.1373 27.8808 23.254 27.7874 23.338C27.6941 23.422 27.5634 23.464 27.3954 23.464H23.1254V27.482C23.1254 27.6593 23.0741 27.804 22.9714 27.916C22.8781 28.0187 22.7428 28.07 22.5654 28.07ZM30.3444 28C30.1857 28 30.0504 27.9533 29.9384 27.86C29.8357 27.7573 29.7844 27.6267 29.7844 27.468V18.648C29.7844 18.4707 29.8357 18.3307 29.9384 18.228C30.0411 18.116 30.1811 18.06 30.3584 18.06C30.5357 18.06 30.6757 18.116 30.7784 18.228C30.8811 18.3307 30.9324 18.4707 30.9324 18.648V27.02H35.4544C35.6224 27.02 35.7531 27.062 35.8464 27.146C35.9397 27.23 35.9864 27.3513 35.9864 27.51C35.9864 27.6687 35.9397 27.79 35.8464 27.874C35.7531 27.958 35.6224 28 35.4544 28H30.3444ZM45.6379 27.342C45.6752 27.4167 45.6939 27.496 45.6939 27.58C45.6939 27.72 45.6379 27.8367 45.5259 27.93C45.4232 28.0233 45.2972 28.07 45.1479 28.07C44.9145 28.07 44.7512 27.958 44.6579 27.734L43.6639 25.466H38.3859L37.3779 27.734C37.2845 27.958 37.1212 28.07 36.8879 28.07C36.7385 28.07 36.6079 28.0233 36.4959 27.93C36.3839 27.8273 36.3279 27.706 36.3279 27.566C36.3279 27.4913 36.3465 27.4167 36.3839 27.342L40.3879 18.438C40.4439 18.3073 40.5279 18.2093 40.6399 18.144C40.7519 18.0787 40.8732 18.046 41.0039 18.046C41.1439 18.046 41.2699 18.0833 41.3819 18.158C41.4939 18.2233 41.5779 18.3167 41.6339 18.438L45.6379 27.342ZM38.8059 24.514H43.2439L41.0179 19.488L38.8059 24.514ZM51.156 28.112C50.2226 28.112 49.4153 27.9113 48.734 27.51C48.0526 27.0993 47.5253 26.516 47.152 25.76C46.788 24.9947 46.606 24.094 46.606 23.058C46.606 22.0313 46.788 21.14 47.152 20.384C47.5253 19.6187 48.0526 19.0353 48.734 18.634C49.4153 18.2233 50.2226 18.018 51.156 18.018C51.7813 18.018 52.3693 18.1207 52.92 18.326C53.48 18.522 53.9653 18.8067 54.376 19.18C54.5253 19.32 54.6 19.4833 54.6 19.67C54.6 19.8007 54.5626 19.9173 54.488 20.02C54.4133 20.1133 54.3246 20.16 54.222 20.16C54.11 20.16 53.9746 20.1087 53.816 20.006C53.34 19.6327 52.906 19.3713 52.514 19.222C52.1313 19.0727 51.688 18.998 51.184 18.998C50.1013 18.998 49.266 19.3527 48.678 20.062C48.0993 20.762 47.81 21.7607 47.81 23.058C47.81 24.3647 48.0993 25.3727 48.678 26.082C49.266 26.782 50.1013 27.132 51.184 27.132C51.6786 27.132 52.122 27.0573 52.514 26.908C52.906 26.7587 53.34 26.4973 53.816 26.124C53.9746 26.0213 54.11 25.97 54.222 25.97C54.3246 25.97 54.4133 26.0167 54.488 26.11C54.5626 26.2033 54.6 26.32 54.6 26.46C54.6 26.6467 54.5253 26.81 54.376 26.95C53.9653 27.3233 53.48 27.6127 52.92 27.818C52.3693 28.014 51.7813 28.112 51.156 28.112Z" fill="#5A8CED"/>
<rect x="37" y="55" width="15" height="12" rx="2" fill="#5A8CED"/>
<line x1="42.5" y1="63" x2="42.5" y2="58" stroke="#FBF5E5"/>
<line x1="47.5" y1="63" x2="47.5" y2="58" stroke="#FBF5E5"/>
<circle cx="41.5293" cy="62.5293" r="1.5" transform="rotate(-1.12959 41.5293 62.5293)" fill="#FBF5E5"/>
<circle cx="46.5293" cy="62.5293" r="1.5" transform="rotate(-1.12959 46.5293 62.5293)" fill="#FBF5E5"/>
<rect x="42" y="58" width="6" height="2" fill="#FBF5E5"/>
</svg>
