<svg width="61" height="76" viewBox="0 0 61 76" fill="none" xmlns="http://www.w3.org/2000/svg">
<rect x="6.5" y="6.5" width="54" height="69" rx="4.5" fill="#FBF5E5" stroke="#5A8CED"/>
<rect x="0.5" y="0.5" width="54" height="69" rx="4.5" fill="#FFDFB0" stroke="#5A8CED"/>
<rect x="18.5" y="13.5" width="39" height="19" rx="4.5" fill="#FFDFB0" stroke="#5A8CED"/>
<path d="M33.3873 18.06C33.5646 18.06 33.6999 18.116 33.7933 18.228C33.8959 18.3307 33.9473 18.4707 33.9473 18.648V27.51C33.9473 27.678 33.9006 27.8133 33.8073 27.916C33.7139 28.0187 33.5833 28.07 33.4153 28.07C33.2473 28.07 33.1213 28.0187 33.0373 27.916C32.9533 27.8133 32.9113 27.678 32.9113 27.51V20.356L29.8733 26.18C29.7426 26.4507 29.5513 26.586 29.2993 26.586C29.0566 26.586 28.8653 26.4507 28.7253 26.18L25.6733 20.426V27.51C25.6733 27.678 25.6266 27.8133 25.5333 27.916C25.4493 28.0187 25.3233 28.07 25.1553 28.07C24.9873 28.07 24.8566 28.0187 24.7633 27.916C24.6699 27.8133 24.6233 27.678 24.6233 27.51V18.648C24.6233 18.4707 24.6746 18.3307 24.7773 18.228C24.8799 18.116 25.0199 18.06 25.1973 18.06C25.4306 18.06 25.6173 18.1953 25.7573 18.466L29.3133 25.284L32.8273 18.466C32.9019 18.3167 32.9813 18.214 33.0653 18.158C33.1586 18.0927 33.2659 18.06 33.3873 18.06ZM36.9688 28.07C36.7914 28.07 36.6514 28.0187 36.5488 27.916C36.4461 27.804 36.3948 27.6593 36.3948 27.482V18.69C36.3948 18.522 36.4461 18.3867 36.5488 18.284C36.6608 18.1813 36.8054 18.13 36.9828 18.13H40.3008C41.3368 18.13 42.1394 18.382 42.7088 18.886C43.2874 19.39 43.5768 20.104 43.5768 21.028C43.5768 21.952 43.2874 22.6707 42.7088 23.184C42.1301 23.6973 41.3274 23.954 40.3008 23.954H37.5428V27.482C37.5428 27.6593 37.4914 27.804 37.3888 27.916C37.2861 28.0187 37.1461 28.07 36.9688 28.07ZM40.1888 23.002C41.6914 23.002 42.4428 22.344 42.4428 21.028C42.4428 19.7307 41.6914 19.082 40.1888 19.082H37.5428V23.002H40.1888ZM49.7162 22.932C50.3135 23.1 50.7662 23.3893 51.0742 23.8C51.3915 24.2107 51.5502 24.7193 51.5502 25.326C51.5502 26.1847 51.2609 26.8613 50.6822 27.356C50.1035 27.8507 49.3149 28.098 48.3162 28.098C47.7095 28.098 47.1262 27.9953 46.5662 27.79C46.0155 27.5847 45.5489 27.3047 45.1662 26.95C45.0169 26.81 44.9422 26.6513 44.9422 26.474C44.9422 26.334 44.9795 26.2173 45.0542 26.124C45.1289 26.0307 45.2175 25.984 45.3202 25.984C45.4509 25.984 45.5815 26.0353 45.7122 26.138C46.1415 26.4833 46.5615 26.7353 46.9722 26.894C47.3829 27.0527 47.8262 27.132 48.3022 27.132C48.9929 27.132 49.5155 26.9733 49.8702 26.656C50.2342 26.3387 50.4162 25.8813 50.4162 25.284C50.4162 24.08 49.6602 23.478 48.1482 23.478H47.4062C47.2569 23.478 47.1355 23.4313 47.0422 23.338C46.9582 23.2353 46.9162 23.1187 46.9162 22.988C46.9162 22.8573 46.9582 22.7453 47.0422 22.652C47.1355 22.5587 47.2569 22.512 47.4062 22.512H47.9242C48.6522 22.512 49.2122 22.3533 49.6042 22.036C49.9962 21.7093 50.1922 21.2427 50.1922 20.636C50.1922 20.104 50.0335 19.698 49.7162 19.418C49.3989 19.1287 48.9509 18.984 48.3722 18.984C47.9335 18.984 47.5089 19.068 47.0982 19.236C46.6875 19.3947 46.2769 19.642 45.8662 19.978C45.7355 20.0807 45.6049 20.132 45.4742 20.132C45.3715 20.132 45.2829 20.0853 45.2082 19.992C45.1335 19.8987 45.0962 19.782 45.0962 19.642C45.0962 19.4647 45.1709 19.306 45.3202 19.166C45.7029 18.8113 46.1649 18.5313 46.7062 18.326C47.2569 18.1207 47.8215 18.018 48.4002 18.018C49.2962 18.018 50.0102 18.2467 50.5422 18.704C51.0742 19.1613 51.3355 19.7773 51.3262 20.552C51.3169 21.112 51.1675 21.602 50.8782 22.022C50.5982 22.442 50.2109 22.7453 49.7162 22.932Z" fill="#5A8CED"/>
<rect x="37" y="55" width="15" height="12" rx="2" fill="#5A8CED"/>
<line x1="42.5" y1="63" x2="42.5" y2="58" stroke="#FBF5E5"/>
<line x1="47.5" y1="63" x2="47.5" y2="58" stroke="#FBF5E5"/>
<circle cx="41.5293" cy="62.5293" r="1.5" transform="rotate(-1.12959 41.5293 62.5293)" fill="#FBF5E5"/>
<circle cx="46.5293" cy="62.5293" r="1.5" transform="rotate(-1.12959 46.5293 62.5293)" fill="#FBF5E5"/>
<rect x="42" y="58" width="6" height="2" fill="#FBF5E5"/>
</svg>
