<svg width="61" height="76" viewBox="0 0 61 76" fill="none" xmlns="http://www.w3.org/2000/svg">
<rect x="6.5" y="6.5" width="54" height="69" rx="4.5" fill="#FBF5E5" stroke="#5A8CED"/>
<rect x="0.5" y="0.5" width="54" height="69" rx="4.5" fill="#FFDFB0" stroke="#5A8CED"/>
<rect x="18.5" y="13.5" width="39" height="19" rx="4.5" fill="#FFDFB0" stroke="#5A8CED"/>
<path d="M29.8333 18.48C29.9853 18.48 30.1013 18.528 30.1813 18.624C30.2693 18.712 30.3133 18.832 30.3133 18.984V26.58C30.3133 26.724 30.2733 26.84 30.1933 26.928C30.1133 27.016 30.0013 27.06 29.8573 27.06C29.7133 27.06 29.6053 27.016 29.5333 26.928C29.4613 26.84 29.4253 26.724 29.4253 26.58V20.448L26.8213 25.44C26.7093 25.672 26.5453 25.788 26.3293 25.788C26.1213 25.788 25.9573 25.672 25.8373 25.44L23.2213 20.508V26.58C23.2213 26.724 23.1813 26.84 23.1013 26.928C23.0293 27.016 22.9213 27.06 22.7773 27.06C22.6333 27.06 22.5213 27.016 22.4413 26.928C22.3613 26.84 22.3213 26.724 22.3213 26.58V18.984C22.3213 18.832 22.3653 18.712 22.4533 18.624C22.5413 18.528 22.6613 18.48 22.8133 18.48C23.0133 18.48 23.1733 18.596 23.2933 18.828L26.3413 24.672L29.3533 18.828C29.4173 18.7 29.4853 18.612 29.5573 18.564C29.6373 18.508 29.7293 18.48 29.8333 18.48ZM32.9032 27.06C32.7512 27.06 32.6312 27.016 32.5432 26.928C32.4552 26.832 32.4112 26.708 32.4112 26.556V19.02C32.4112 18.876 32.4552 18.76 32.5432 18.672C32.6392 18.584 32.7632 18.54 32.9152 18.54H35.7592C36.6472 18.54 37.3352 18.756 37.8232 19.188C38.3192 19.62 38.5672 20.232 38.5672 21.024C38.5672 21.816 38.3192 22.432 37.8232 22.872C37.3272 23.312 36.6392 23.532 35.7592 23.532H33.3952V26.556C33.3952 26.708 33.3512 26.832 33.2632 26.928C33.1752 27.016 33.0552 27.06 32.9032 27.06ZM35.6632 22.716C36.9512 22.716 37.5952 22.152 37.5952 21.024C37.5952 19.912 36.9512 19.356 35.6632 19.356H33.3952V22.716H35.6632ZM40.6496 27C40.4976 27 40.3736 26.956 40.2776 26.868C40.1896 26.78 40.1456 26.664 40.1456 26.52V19.02C40.1456 18.876 40.1896 18.76 40.2776 18.672C40.3736 18.584 40.4976 18.54 40.6496 18.54H45.1376C45.2816 18.54 45.3936 18.576 45.4736 18.648C45.5536 18.72 45.5936 18.82 45.5936 18.948C45.5936 19.076 45.5536 19.176 45.4736 19.248C45.3936 19.32 45.2816 19.356 45.1376 19.356H41.1176V22.296H44.8976C45.0416 22.296 45.1536 22.332 45.2336 22.404C45.3136 22.476 45.3536 22.576 45.3536 22.704C45.3536 22.832 45.3136 22.932 45.2336 23.004C45.1536 23.076 45.0416 23.112 44.8976 23.112H41.1176V26.184H45.1376C45.2816 26.184 45.3936 26.22 45.4736 26.292C45.5536 26.356 45.5936 26.456 45.5936 26.592C45.5936 26.72 45.5536 26.82 45.4736 26.892C45.3936 26.964 45.2816 27 45.1376 27H40.6496ZM53.3711 22.596C53.4911 22.596 53.5871 22.632 53.6591 22.704C53.7391 22.776 53.7791 22.876 53.7791 23.004V25.992C53.7791 26.184 53.7471 26.328 53.6831 26.424C53.6271 26.52 53.5191 26.596 53.3591 26.652C53.0391 26.788 52.6511 26.896 52.1951 26.976C51.7391 27.056 51.2831 27.096 50.8271 27.096C49.9871 27.096 49.2631 26.924 48.6551 26.58C48.0471 26.236 47.5791 25.74 47.2511 25.092C46.9311 24.444 46.7711 23.668 46.7711 22.764C46.7711 21.876 46.9311 21.108 47.2511 20.46C47.5711 19.812 48.0311 19.316 48.6311 18.972C49.2311 18.62 49.9351 18.444 50.7431 18.444C51.3031 18.444 51.8231 18.532 52.3031 18.708C52.7831 18.876 53.1871 19.12 53.5151 19.44C53.6511 19.576 53.7191 19.716 53.7191 19.86C53.7191 19.972 53.6871 20.072 53.6231 20.16C53.5591 20.24 53.4791 20.28 53.3831 20.28C53.2871 20.28 53.1751 20.232 53.0471 20.136C52.6311 19.816 52.2551 19.596 51.9191 19.476C51.5831 19.348 51.1951 19.284 50.7551 19.284C49.8031 19.284 49.0711 19.584 48.5591 20.184C48.0551 20.784 47.8031 21.644 47.8031 22.764C47.8031 23.908 48.0591 24.78 48.5711 25.38C49.0911 25.972 49.8511 26.268 50.8511 26.268C51.5951 26.268 52.2711 26.156 52.8791 25.932V23.364H51.1271C50.9911 23.364 50.8831 23.328 50.8031 23.256C50.7231 23.184 50.6831 23.092 50.6831 22.98C50.6831 22.86 50.7231 22.768 50.8031 22.704C50.8831 22.632 50.9911 22.596 51.1271 22.596H53.3711Z" fill="#5A8CED"/>
<rect x="37" y="55" width="15" height="12" rx="2" fill="#5A8CED"/>
<line x1="42.5" y1="63" x2="42.5" y2="58" stroke="#FBF5E5"/>
<line x1="47.5" y1="63" x2="47.5" y2="58" stroke="#FBF5E5"/>
<circle cx="41.5293" cy="62.5293" r="1.5" transform="rotate(-1.12959 41.5293 62.5293)" fill="#FBF5E5"/>
<circle cx="46.5293" cy="62.5293" r="1.5" transform="rotate(-1.12959 46.5293 62.5293)" fill="#FBF5E5"/>
<rect x="42" y="58" width="6" height="2" fill="#FBF5E5"/>
</svg>
