<svg width="61" height="76" viewBox="0 0 61 76" fill="none" xmlns="http://www.w3.org/2000/svg">
<rect x="6.5" y="6.5" width="54" height="69" rx="4.5" fill="#FBF5E5" stroke="#5A8CED"/>
<rect x="0.5" y="0.5" width="54" height="69" rx="4.5" fill="#FFDFB0" stroke="#5A8CED"/>
<rect x="18.5" y="13.5" width="39" height="19" rx="4.5" fill="#FFDFB0" stroke="#5A8CED"/>
<path d="M27.8714 28.112C26.9568 28.112 26.1588 27.9067 25.4774 27.496C24.8054 27.0853 24.2874 26.502 23.9234 25.746C23.5594 24.99 23.3774 24.0987 23.3774 23.072C23.3774 22.036 23.5548 21.14 23.9094 20.384C24.2734 19.6187 24.7914 19.0353 25.4634 18.634C26.1448 18.2233 26.9474 18.018 27.8714 18.018C28.7954 18.018 29.5934 18.2233 30.2654 18.634C30.9468 19.0353 31.4648 19.6187 31.8194 20.384C32.1834 21.14 32.3654 22.0313 32.3654 23.058C32.3654 24.0847 32.1834 24.9807 31.8194 25.746C31.4554 26.502 30.9328 27.0853 30.2514 27.496C29.5794 27.9067 28.7861 28.112 27.8714 28.112ZM27.8714 27.132C28.9168 27.132 29.7288 26.782 30.3074 26.082C30.8954 25.3727 31.1894 24.3647 31.1894 23.058C31.1894 21.7513 30.9001 20.748 30.3214 20.048C29.7428 19.348 28.9261 18.998 27.8714 18.998C26.8261 18.998 26.0094 19.3527 25.4214 20.062C24.8428 20.762 24.5534 21.7607 24.5534 23.058C24.5534 24.3553 24.8428 25.3587 25.4214 26.068C26.0094 26.7773 26.8261 27.132 27.8714 27.132ZM41.7688 22.862C41.9088 22.862 42.0208 22.904 42.1048 22.988C42.1982 23.072 42.2448 23.1887 42.2448 23.338V26.824C42.2448 27.048 42.2075 27.216 42.1328 27.328C42.0675 27.44 41.9415 27.5287 41.7548 27.594C41.3815 27.7527 40.9288 27.8787 40.3968 27.972C39.8648 28.0653 39.3328 28.112 38.8008 28.112C37.8208 28.112 36.9762 27.9113 36.2668 27.51C35.5575 27.1087 35.0115 26.53 34.6288 25.774C34.2555 25.018 34.0688 24.1127 34.0688 23.058C34.0688 22.022 34.2555 21.126 34.6288 20.37C35.0022 19.614 35.5388 19.0353 36.2388 18.634C36.9388 18.2233 37.7602 18.018 38.7028 18.018C39.3562 18.018 39.9628 18.1207 40.5228 18.326C41.0828 18.522 41.5542 18.8067 41.9368 19.18C42.0955 19.3387 42.1748 19.502 42.1748 19.67C42.1748 19.8007 42.1375 19.9173 42.0628 20.02C41.9882 20.1133 41.8948 20.16 41.7828 20.16C41.6708 20.16 41.5402 20.104 41.3908 19.992C40.9055 19.6187 40.4668 19.362 40.0748 19.222C39.6828 19.0727 39.2302 18.998 38.7168 18.998C37.6062 18.998 36.7522 19.348 36.1548 20.048C35.5668 20.748 35.2728 21.7513 35.2728 23.058C35.2728 24.3927 35.5715 25.41 36.1688 26.11C36.7755 26.8007 37.6622 27.146 38.8288 27.146C39.6968 27.146 40.4855 27.0153 41.1948 26.754V23.758H39.1508C38.9922 23.758 38.8662 23.716 38.7728 23.632C38.6795 23.548 38.6328 23.4407 38.6328 23.31C38.6328 23.17 38.6795 23.0627 38.7728 22.988C38.8662 22.904 38.9922 22.862 39.1508 22.862H41.7688ZM51.8997 22.862C52.0397 22.862 52.1517 22.904 52.2357 22.988C52.329 23.072 52.3757 23.1887 52.3757 23.338V26.824C52.3757 27.048 52.3384 27.216 52.2637 27.328C52.1984 27.44 52.0724 27.5287 51.8857 27.594C51.5124 27.7527 51.0597 27.8787 50.5277 27.972C49.9957 28.0653 49.4637 28.112 48.9317 28.112C47.9517 28.112 47.107 27.9113 46.3977 27.51C45.6884 27.1087 45.1424 26.53 44.7597 25.774C44.3864 25.018 44.1997 24.1127 44.1997 23.058C44.1997 22.022 44.3864 21.126 44.7597 20.37C45.133 19.614 45.6697 19.0353 46.3697 18.634C47.0697 18.2233 47.891 18.018 48.8337 18.018C49.487 18.018 50.0937 18.1207 50.6537 18.326C51.2137 18.522 51.685 18.8067 52.0677 19.18C52.2264 19.3387 52.3057 19.502 52.3057 19.67C52.3057 19.8007 52.2684 19.9173 52.1937 20.02C52.119 20.1133 52.0257 20.16 51.9137 20.16C51.8017 20.16 51.671 20.104 51.5217 19.992C51.0364 19.6187 50.5977 19.362 50.2057 19.222C49.8137 19.0727 49.361 18.998 48.8477 18.998C47.737 18.998 46.883 19.348 46.2857 20.048C45.6977 20.748 45.4037 21.7513 45.4037 23.058C45.4037 24.3927 45.7024 25.41 46.2997 26.11C46.9064 26.8007 47.793 27.146 48.9597 27.146C49.8277 27.146 50.6164 27.0153 51.3257 26.754V23.758H49.2817C49.123 23.758 48.997 23.716 48.9037 23.632C48.8104 23.548 48.7637 23.4407 48.7637 23.31C48.7637 23.17 48.8104 23.0627 48.9037 22.988C48.997 22.904 49.123 22.862 49.2817 22.862H51.8997Z" fill="#5A8CED"/>
<rect x="37" y="55" width="15" height="12" rx="2" fill="#5A8CED"/>
<line x1="42.5" y1="63" x2="42.5" y2="58" stroke="#FBF5E5"/>
<line x1="47.5" y1="63" x2="47.5" y2="58" stroke="#FBF5E5"/>
<circle cx="41.5293" cy="62.5293" r="1.5" transform="rotate(-1.12959 41.5293 62.5293)" fill="#FBF5E5"/>
<circle cx="46.5293" cy="62.5293" r="1.5" transform="rotate(-1.12959 46.5293 62.5293)" fill="#FBF5E5"/>
<rect x="42" y="58" width="6" height="2" fill="#FBF5E5"/>
</svg>
