<svg width="61" height="76" viewBox="0 0 61 76" fill="none" xmlns="http://www.w3.org/2000/svg">
<rect x="6.5" y="6.5" width="54" height="69" rx="4.5" fill="#FBF5E5" stroke="#5A8CED"/>
<rect x="0.5" y="0.5" width="54" height="69" rx="4.5" fill="#FFDFB0" stroke="#5A8CED"/>
<rect x="18.5" y="13.5" width="39" height="19" rx="4.5" fill="#FFDFB0" stroke="#5A8CED"/>
<path d="M35.0908 18.41C35.1281 18.2887 35.1935 18.2 35.2868 18.144C35.3801 18.0787 35.4828 18.046 35.5948 18.046C35.7441 18.046 35.8701 18.0927 35.9728 18.186C36.0848 18.27 36.1408 18.3867 36.1408 18.536C36.1408 18.6013 36.1268 18.676 36.0988 18.76L32.9348 27.678C32.8881 27.8087 32.8088 27.9113 32.6968 27.986C32.5848 28.0513 32.4588 28.084 32.3188 28.084C32.1881 28.084 32.0668 28.0513 31.9548 27.986C31.8428 27.9113 31.7635 27.8087 31.7168 27.678L28.9728 19.922L26.2008 27.678C26.1541 27.8087 26.0748 27.9113 25.9628 27.986C25.8508 28.0513 25.7295 28.084 25.5988 28.084C25.4681 28.084 25.3468 28.0513 25.2348 27.986C25.1228 27.9113 25.0435 27.8087 24.9968 27.678L21.8188 18.76C21.7908 18.6853 21.7768 18.6153 21.7768 18.55C21.7768 18.4007 21.8328 18.2793 21.9448 18.186C22.0661 18.0927 22.2015 18.046 22.3508 18.046C22.4628 18.046 22.5655 18.0787 22.6588 18.144C22.7615 18.2 22.8315 18.2887 22.8688 18.41L25.6268 26.362L28.4268 18.494C28.4735 18.354 28.5481 18.2513 28.6508 18.186C28.7535 18.1113 28.8655 18.074 28.9868 18.074C29.1081 18.074 29.2201 18.1113 29.3228 18.186C29.4255 18.2607 29.5001 18.368 29.5468 18.508L32.3048 26.39L35.0908 18.41ZM45.4943 27.342C45.5317 27.4167 45.5503 27.496 45.5503 27.58C45.5503 27.72 45.4943 27.8367 45.3823 27.93C45.2797 28.0233 45.1537 28.07 45.0043 28.07C44.771 28.07 44.6077 27.958 44.5143 27.734L43.5203 25.466H38.2423L37.2343 27.734C37.141 27.958 36.9777 28.07 36.7443 28.07C36.595 28.07 36.4643 28.0233 36.3523 27.93C36.2403 27.8273 36.1843 27.706 36.1843 27.566C36.1843 27.4913 36.203 27.4167 36.2403 27.342L40.2443 18.438C40.3003 18.3073 40.3843 18.2093 40.4963 18.144C40.6083 18.0787 40.7297 18.046 40.8603 18.046C41.0003 18.046 41.1263 18.0833 41.2383 18.158C41.3503 18.2233 41.4343 18.3167 41.4903 18.438L45.4943 27.342ZM38.6623 24.514H43.1003L40.8743 19.488L38.6623 24.514ZM53.5175 18.354C53.5642 18.2513 53.6295 18.172 53.7135 18.116C53.8069 18.06 53.9049 18.032 54.0075 18.032C54.1569 18.032 54.2875 18.0833 54.3995 18.186C54.5209 18.2793 54.5815 18.396 54.5815 18.536C54.5815 18.6107 54.5629 18.6853 54.5255 18.76L50.5075 27.692C50.4515 27.8133 50.3675 27.9067 50.2555 27.972C50.1435 28.0373 50.0222 28.07 49.8915 28.07C49.7609 28.07 49.6395 28.0373 49.5275 27.972C49.4155 27.9067 49.3315 27.8133 49.2755 27.692L45.2715 18.76C45.2435 18.6853 45.2295 18.6153 45.2295 18.55C45.2295 18.4007 45.2902 18.2793 45.4115 18.186C45.5329 18.0833 45.6682 18.032 45.8175 18.032C46.0415 18.032 46.2049 18.1393 46.3075 18.354L49.9195 26.516L53.5175 18.354Z" fill="#5A8CED"/>
<rect x="37" y="55" width="15" height="12" rx="2" fill="#5A8CED"/>
<line x1="42.5" y1="63" x2="42.5" y2="58" stroke="#FBF5E5"/>
<line x1="47.5" y1="63" x2="47.5" y2="58" stroke="#FBF5E5"/>
<circle cx="41.5293" cy="62.5293" r="1.5" transform="rotate(-1.12959 41.5293 62.5293)" fill="#FBF5E5"/>
<circle cx="46.5293" cy="62.5293" r="1.5" transform="rotate(-1.12959 46.5293 62.5293)" fill="#FBF5E5"/>
<rect x="42" y="58" width="6" height="2" fill="#FBF5E5"/>
</svg>
