<svg width="61" height="76" viewBox="0 0 61 76" fill="none" xmlns="http://www.w3.org/2000/svg">
<rect x="6.5" y="6.5" width="54" height="69" rx="4.5" fill="#FBF5E5" stroke="#5A8CED"/>
<rect x="0.5" y="0.5" width="54" height="69" rx="4.5" fill="#FFDFB0" stroke="#5A8CED"/>
<rect x="18.5" y="13.5" width="39" height="19" rx="4.5" fill="#FFDFB0" stroke="#5A8CED"/>
<path d="M33.1562 18.41C33.1936 18.2887 33.2589 18.2 33.3522 18.144C33.4456 18.0787 33.5482 18.046 33.6602 18.046C33.8096 18.046 33.9356 18.0927 34.0382 18.186C34.1502 18.27 34.2062 18.3867 34.2062 18.536C34.2062 18.6013 34.1922 18.676 34.1642 18.76L31.0002 27.678C30.9536 27.8087 30.8742 27.9113 30.7622 27.986C30.6502 28.0513 30.5242 28.084 30.3842 28.084C30.2536 28.084 30.1322 28.0513 30.0202 27.986C29.9082 27.9113 29.8289 27.8087 29.7822 27.678L27.0382 19.922L24.2662 27.678C24.2196 27.8087 24.1402 27.9113 24.0282 27.986C23.9162 28.0513 23.7949 28.084 23.6642 28.084C23.5336 28.084 23.4122 28.0513 23.3002 27.986C23.1882 27.9113 23.1089 27.8087 23.0622 27.678L19.8842 18.76C19.8562 18.6853 19.8422 18.6153 19.8422 18.55C19.8422 18.4007 19.8982 18.2793 20.0102 18.186C20.1316 18.0927 20.2669 18.046 20.4162 18.046C20.5282 18.046 20.6309 18.0787 20.7242 18.144C20.8269 18.2 20.8969 18.2887 20.9342 18.41L23.6922 26.362L26.4922 18.494C26.5389 18.354 26.6136 18.2513 26.7162 18.186C26.8189 18.1113 26.9309 18.074 27.0522 18.074C27.1736 18.074 27.2856 18.1113 27.3882 18.186C27.4909 18.2607 27.5656 18.368 27.6122 18.508L30.3702 26.39L33.1562 18.41ZM44.7144 18.06C44.8918 18.06 45.0271 18.116 45.1204 18.228C45.2231 18.3307 45.2744 18.4707 45.2744 18.648V27.51C45.2744 27.678 45.2278 27.8133 45.1344 27.916C45.0411 28.0187 44.9104 28.07 44.7424 28.07C44.5744 28.07 44.4484 28.0187 44.3644 27.916C44.2804 27.8133 44.2384 27.678 44.2384 27.51V20.356L41.2004 26.18C41.0698 26.4507 40.8784 26.586 40.6264 26.586C40.3838 26.586 40.1924 26.4507 40.0524 26.18L37.0004 20.426V27.51C37.0004 27.678 36.9538 27.8133 36.8604 27.916C36.7764 28.0187 36.6504 28.07 36.4824 28.07C36.3144 28.07 36.1838 28.0187 36.0904 27.916C35.9971 27.8133 35.9504 27.678 35.9504 27.51V18.648C35.9504 18.4707 36.0018 18.3307 36.1044 18.228C36.2071 18.116 36.3471 18.06 36.5244 18.06C36.7578 18.06 36.9444 18.1953 37.0844 18.466L40.6404 25.284L44.1544 18.466C44.2291 18.3167 44.3084 18.214 44.3924 18.158C44.4858 18.0927 44.5931 18.06 44.7144 18.06ZM56.2199 27.342C56.2572 27.4167 56.2759 27.496 56.2759 27.58C56.2759 27.72 56.2199 27.8367 56.1079 27.93C56.0052 28.0233 55.8792 28.07 55.7299 28.07C55.4966 28.07 55.3332 27.958 55.2399 27.734L54.2459 25.466H48.9679L47.9599 27.734C47.8666 27.958 47.7032 28.07 47.4699 28.07C47.3206 28.07 47.1899 28.0233 47.0779 27.93C46.9659 27.8273 46.9099 27.706 46.9099 27.566C46.9099 27.4913 46.9286 27.4167 46.9659 27.342L50.9699 18.438C51.0259 18.3073 51.1099 18.2093 51.2219 18.144C51.3339 18.0787 51.4552 18.046 51.5859 18.046C51.7259 18.046 51.8519 18.0833 51.9639 18.158C52.0759 18.2233 52.1599 18.3167 52.2159 18.438L56.2199 27.342ZM49.3879 24.514H53.8259L51.5999 19.488L49.3879 24.514Z" fill="#5A8CED"/>
<rect x="37" y="55" width="15" height="12" rx="2" fill="#5A8CED"/>
<line x1="42.5" y1="63" x2="42.5" y2="58" stroke="#FBF5E5"/>
<line x1="47.5" y1="63" x2="47.5" y2="58" stroke="#FBF5E5"/>
<circle cx="41.5293" cy="62.5293" r="1.5" transform="rotate(-1.12959 41.5293 62.5293)" fill="#FBF5E5"/>
<circle cx="46.5293" cy="62.5293" r="1.5" transform="rotate(-1.12959 46.5293 62.5293)" fill="#FBF5E5"/>
<rect x="42" y="58" width="6" height="2" fill="#FBF5E5"/>
</svg>
